<svg xmlns="http://www.w3.org/2000/svg" width="24" height="24" fill="#1976d2">
    <!-- Simulate white halo by drawing image twice to get a white stroke on the outer edges -->
    <symbol id="icon" viewBox="-1 -1 26 26">
        <path d="M6.5 12a1.495 1.495 0 00-.5 2.908V17a.5.5 0 001 0v-2.092A1.496 1.496 0 006.5 12zM13.5 15c-.827 0-1.5.673-1.5 1.5v1a.5.5 0 00.5.5h2a.5.5 0 00.5-.5v-1c0-.827-.673-1.5-1.5-1.5zM18.5 15c-.827 0-1.5.673-1.5 1.5v1a.5.5 0 00.5.5h2a.5.5 0 00.5-.5v-1c0-.827-.673-1.5-1.5-1.5zM24 3v-.5C24 1.122 22.878 0 21.5 0h-19A2.503 2.503 0 000 2.5V3h24zM.334 4L4.2 6.9a.5.5 0 00.3.1h15a.5.5 0 00.3-.1L23.666 4H.334z"/>
        <path d="M22 4l-2.8 2.1a.499.499 0 00-.19.498l2 10a.5.5 0 00.49.402h.011a.5.5 0 00.483-.424L23.929 4H22zM2 4H.071l1.935 12.576a.5.5 0 00.483.424H2.5a.5.5 0 00.49-.402l2-10A.499.499 0 004.8 6.1L2 4z"/>
        <g>
            <path d="M0 21v2.5a.5.5 0 00.5.5h23a.5.5 0 00.5-.5V21H0zm20.5 2h-5a.5.5 0 010-1h5a.5.5 0 010 1z"/>
        </g>
        <path d="M23.997 19.486c0-.015-.007-.028-.009-.043a.48.48 0 00-.062-.188c-.006-.01-.004-.022-.01-.032l-2-3A.499.499 0 0021 16.5v1c0 .827-.673 1.5-1.5 1.5h-2c-.432 0-.831-.185-1.124-.519a.517.517 0 00-.753 0A1.477 1.477 0 0114.5 19h-2c-.827 0-1.5-.673-1.5-1.5v-1a.5.5 0 00-.5-.5h-2a.5.5 0 00-.5.5v.5c0 .827-.673 1.5-1.5 1.5S5 17.827 5 17v-.5a.5.5 0 00-.5-.5h-2a.499.499 0 00-.416.223l-2 3c-.006.01-.005.022-.01.032a.486.486 0 00-.062.188c-.002.015-.008.028-.009.043 0 .005-.003.009-.003.014v.5h24v-.5c0-.005-.003-.009-.003-.014z"/>
    </symbol>
    <use href="#icon" stroke="white" stroke-width="2"/>
    <use href="#icon"/>
</svg>