<?xml version="1.0" encoding="UTF-8" standalone="no"?>
<svg
   version="1.1"
   x="0px"
   y="0px"
   viewBox="0 0 100 100"
   xml:space="preserve"
   id="svg11"
   width="100"
   height="100"
   xmlns="http://www.w3.org/2000/svg"
   xmlns:svg="http://www.w3.org/2000/svg"><defs
     id="defs11" /><g
     id="g5"><ellipse
       transform="matrix(0.01037006,-0.9999,0.9999,0.01037006,12.4267,78.3818)"
       cx="45.799999"
       cy="32.900002"
       rx="6.5999999"
       ry="4.1999998"
       id="ellipse1" /><ellipse
       transform="matrix(0.9978,-0.06691498,0.06691498,0.9978,-2.2652,2.5638)"
       cx="37.099998"
       cy="35.099998"
       rx="3.0999999"
       ry="4.9000001"
       id="ellipse2" /><ellipse
       transform="matrix(0.9978,-0.06691382,0.06691382,0.9978,-2.4163,2.0933)"
       cx="30"
       cy="37.099998"
       rx="2.7"
       ry="4.1999998"
       id="ellipse3" /><ellipse
       transform="matrix(0.9753,-0.2208,0.2208,0.9753,-8.4115,6.5858)"
       cx="25.299999"
       cy="40.900002"
       rx="2.0999999"
       ry="3.3"
       id="ellipse4" /><ellipse
       transform="matrix(0.9753,-0.2208,0.2208,0.9753,-9.2972,5.8775)"
       cx="21.6"
       cy="44.5"
       rx="1.8"
       ry="2.8"
       id="ellipse5" /><path
       d="m 49.7,45.6 c -0.6,-2.5 -4.1,-4.3 -8.2,-4.1 -0.3,0 -0.6,0 -0.9,0.1 -0.3,0 -0.6,0 -0.9,0 -0.9,0 -1.7,0.2 -2.5,0.4 C 25.3,43.3 22.3,54.2 22.6,56.9 22.3,59.8 25.1,67 25.1,67 l 7.4,14 c 0.1,2.6 0.6,4.7 1.3,6.3 0.8,2.5 2.5,4.4 4.8,5.5 0,0 0.1,0 0.1,0.1 0,0 0.1,0 0.1,0.1 0.9,0.4 1.5,0.5 1.5,0.5 0,0 0,0 0,0 0.8,0.2 1.7,0.2 2.6,0.1 4.8,-0.5 8.3,-4.8 7.8,-9.7 C 50.4,81.2 49,78.9 46.9,77.5 37.6,68.8 41.8,62 41.8,62 c 9,-7.7 9.3,-13.2 7.9,-16.4 z"
       id="path5" /></g><g
     id="g10"><ellipse
       transform="matrix(0.9937,-0.1123,0.1123,0.9937,-1.1254,6.4546)"
       cx="56.700001"
       cy="13.2"
       rx="4.1999998"
       ry="6.5999999"
       id="ellipse6" /><ellipse
       transform="matrix(0.9994,-0.03516469,0.03516469,0.9994,-0.4696,2.3157)"
       cx="65.599998"
       cy="14.5"
       rx="3.0999999"
       ry="4.9000001"
       id="ellipse7" /><ellipse
       transform="matrix(0.9994,-0.03516586,0.03516586,0.9994,-0.5103,2.5722)"
       cx="72.900002"
       cy="15.8"
       rx="2.7"
       ry="4.1999998"
       id="ellipse8" /><ellipse
       transform="matrix(0.1202,-0.9928,0.9928,0.1202,49.6863,94.2448)"
       cx="78"
       cy="19.1"
       rx="3.3"
       ry="2.0999999"
       id="ellipse9" /><ellipse
       transform="matrix(0.1202,-0.9928,0.9928,0.1202,49.9717,101.0108)"
       cx="82"
       cy="22.299999"
       rx="2.8"
       ry="1.8"
       id="ellipse10" /><path
       d="m 54.2,26.3 c 0.4,-2.5 3.6,-4.7 7.7,-4.9 0.3,0 0.6,0 0.9,0 0.3,0 0.6,-0.1 0.9,-0.1 0.9,-0.1 1.7,0 2.5,0.1 12,0.1 16.1,10.6 16,13.4 0.6,2.9 -1.5,10.3 -1.5,10.3 l -5.9,14.7 c 0.2,2.6 -0.1,4.7 -0.6,6.4 -0.5,2.5 -2.1,4.7 -4.2,5.9 0,0 -0.1,0 -0.1,0.1 0,0 -0.1,0 -0.1,0.1 -0.9,0.5 -1.5,0.6 -1.5,0.6 0,0 0,0 0,0 -0.8,0.3 -1.7,0.4 -2.6,0.4 -4.8,0 -8.7,-4 -8.7,-8.8 0,-2.7 1.2,-5.2 3.1,-6.8 8.4,-9.6 3.5,-15.9 3.5,-15.9 C 53.9,35 53.1,29.5 54.2,26.3 Z"
       id="path10" /></g></svg>
