<?xml version="1.0" encoding="UTF-8" standalone="no"?>
<svg
   id="vector"
   width="32"
   height="44"
   viewBox="0 0 61 85"
   version="1.1"
   sodipodi:docname="pin-piu.svg"
   xml:space="preserve"
   inkscape:version="1.4 (e7c3feb1, 2024-10-09)"
   xmlns:inkscape="http://www.inkscape.org/namespaces/inkscape"
   xmlns:sodipodi="http://sodipodi.sourceforge.net/DTD/sodipodi-0.dtd"
   xmlns="http://www.w3.org/2000/svg"
   xmlns:svg="http://www.w3.org/2000/svg"><defs
     id="defs1" /><sodipodi:namedview
     id="namedview1"
     pagecolor="#ffffff"
     bordercolor="#000000"
     borderopacity="0.25"
     inkscape:showpageshadow="2"
     inkscape:pageopacity="0.0"
     inkscape:pagecheckerboard="0"
     inkscape:deskcolor="#d1d1d1"
     inkscape:zoom="8"
     inkscape:cx="8.75"
     inkscape:cy="25.5625"
     inkscape:window-width="1512"
     inkscape:window-height="844"
     inkscape:window-x="0"
     inkscape:window-y="38"
     inkscape:window-maximized="1"
     inkscape:current-layer="vector" /><path
     fill="#000000"
     d="M31.75,0C48.318,0 61,12.488 61,29.057V30c0,21.834 -19.322,49 -29.75,55H31C20.572,79 0,51.834 0,30v-0.943C0,12.488 13.932,0 30.5,0C30.667,0 31.583,0 31.75,0z"
     id="path_0"
     style="fill:#ffffff;fill-opacity:1" /><path
     fill="#000000"
     d="M31.688,2C47.428,2 59,13.989 59,29.729v0.896C59,51.367 41.119,77 31.212,83h-0.237C21.069,77 2,51.367 2,30.625v-0.896C2,13.989 14.76,2 30.5,2C30.659,2 31.529,2 31.688,2z"
     id="path_1"
     style="fill:#a21caf;fill-opacity:1;stroke-width:1.00068182;stroke-dasharray:none" /><g
     id="g1"
     transform="matrix(0.28964339,0,0,0.28964339,21.383726,26.453164)"
     style="stroke-width:1.00044654;stroke-dasharray:none;fill:#ffffff;fill-opacity:1"><g
       id="g5"
       transform="matrix(1.9318182,0,0,1.9318182,-67.508207,-61.100843)"
       style="stroke-width:0.5178782;stroke-dasharray:none;fill:#ffffff;fill-opacity:1"><ellipse
         transform="matrix(0.01037006,-0.9999,0.9999,0.01037006,12.4267,78.3818)"
         cx="45.799999"
         cy="32.900002"
         rx="6.5999999"
         ry="4.1999998"
         id="ellipse1"
         style="stroke-width:0.51790214;stroke-dasharray:none;fill:#ffffff;fill-opacity:1" /><ellipse
         transform="matrix(0.9978,-0.06691498,0.06691498,0.9978,-2.2652,2.5638)"
         cx="37.099998"
         cy="35.099998"
         rx="3.0999999"
         ry="4.9000001"
         id="ellipse2"
         style="stroke-width:0.51785685;stroke-dasharray:none;fill:#ffffff;fill-opacity:1" /><ellipse
         transform="matrix(0.9978,-0.06691382,0.06691382,0.9978,-2.4163,2.0933)"
         cx="30"
         cy="37.099998"
         rx="2.7"
         ry="4.1999998"
         id="ellipse3"
         style="stroke-width:0.51785689;stroke-dasharray:none;fill:#ffffff;fill-opacity:1" /><ellipse
         transform="matrix(0.9753,-0.2208,0.2208,0.9753,-8.4115,6.5858)"
         cx="25.299999"
         cy="40.900002"
         rx="2.0999999"
         ry="3.3"
         id="ellipse4"
         style="stroke-width:0.51788785;stroke-dasharray:none;fill:#ffffff;fill-opacity:1" /><ellipse
         transform="matrix(0.9753,-0.2208,0.2208,0.9753,-9.2972,5.8775)"
         cx="21.6"
         cy="44.5"
         rx="1.8"
         ry="2.8"
         id="ellipse5"
         style="stroke-width:0.51788785;stroke-dasharray:none;fill:#ffffff;fill-opacity:1" /><path
         d="m 49.7,45.6 c -0.6,-2.5 -4.1,-4.3 -8.2,-4.1 -0.3,0 -0.6,0 -0.9,0.1 -0.3,0 -0.6,0 -0.9,0 -0.9,0 -1.7,0.2 -2.5,0.4 C 25.3,43.3 22.3,54.2 22.6,56.9 22.3,59.8 25.1,67 25.1,67 l 7.4,14 c 0.1,2.6 0.6,4.7 1.3,6.3 0.8,2.5 2.5,4.4 4.8,5.5 0,0 0.1,0 0.1,0.1 0,0 0.1,0 0.1,0.1 0.9,0.4 1.5,0.5 1.5,0.5 0,0 0,0 0,0 0.8,0.2 1.7,0.2 2.6,0.1 4.8,-0.5 8.3,-4.8 7.8,-9.7 C 50.4,81.2 49,78.9 46.9,77.5 37.6,68.8 41.8,62 41.8,62 c 9,-7.7 9.3,-13.2 7.9,-16.4 z"
         id="path5"
         style="stroke-width:0.5178782;stroke-dasharray:none;fill:#ffffff;fill-opacity:1" /></g><g
       id="g10"
       transform="matrix(1.9318182,0,0,1.9318182,-67.508207,-61.100843)"
       style="stroke-width:0.5178782;stroke-dasharray:none;fill:#ffffff;fill-opacity:1"><ellipse
         transform="matrix(0.9937,-0.1123,0.1123,0.9937,-1.1254,6.4546)"
         cx="56.700001"
         cy="13.2"
         rx="4.1999998"
         ry="6.5999999"
         id="ellipse6"
         style="stroke-width:0.517865;stroke-dasharray:none;fill:#ffffff;fill-opacity:1" /><ellipse
         transform="matrix(0.9994,-0.03516469,0.03516469,0.9994,-0.4696,2.3157)"
         cx="65.599998"
         cy="14.5"
         rx="3.0999999"
         ry="4.9000001"
         id="ellipse7"
         style="stroke-width:0.51786865;stroke-dasharray:none;fill:#ffffff;fill-opacity:1" /><ellipse
         transform="matrix(0.9994,-0.03516586,0.03516586,0.9994,-0.5103,2.5722)"
         cx="72.900002"
         cy="15.8"
         rx="2.7"
         ry="4.1999998"
         id="ellipse8"
         style="stroke-width:0.51786862;stroke-dasharray:none;fill:#ffffff;fill-opacity:1" /><ellipse
         transform="matrix(0.1202,-0.9928,0.9928,0.1202,49.6863,94.2448)"
         cx="78"
         cy="19.1"
         rx="3.3"
         ry="2.0999999"
         id="ellipse9"
         style="stroke-width:0.51785234;stroke-dasharray:none;fill:#ffffff;fill-opacity:1" /><ellipse
         transform="matrix(0.1202,-0.9928,0.9928,0.1202,49.9717,101.0108)"
         cx="82"
         cy="22.299999"
         rx="2.8"
         ry="1.8"
         id="ellipse10"
         style="stroke-width:0.51785234;stroke-dasharray:none;fill:#ffffff;fill-opacity:1" /><path
         d="m 54.2,26.3 c 0.4,-2.5 3.6,-4.7 7.7,-4.9 0.3,0 0.6,0 0.9,0 0.3,0 0.6,-0.1 0.9,-0.1 0.9,-0.1 1.7,0 2.5,0.1 12,0.1 16.1,10.6 16,13.4 0.6,2.9 -1.5,10.3 -1.5,10.3 l -5.9,14.7 c 0.2,2.6 -0.1,4.7 -0.6,6.4 -0.5,2.5 -2.1,4.7 -4.2,5.9 0,0 -0.1,0 -0.1,0.1 0,0 -0.1,0 -0.1,0.1 -0.9,0.5 -1.5,0.6 -1.5,0.6 0,0 0,0 0,0 -0.8,0.3 -1.7,0.4 -2.6,0.4 -4.8,0 -8.7,-4 -8.7,-8.8 0,-2.7 1.2,-5.2 3.1,-6.8 8.4,-9.6 3.5,-15.9 3.5,-15.9 C 53.9,35 53.1,29.5 54.2,26.3 Z"
         id="path10"
         style="stroke-width:0.5178782;stroke-dasharray:none;fill:#ffffff;fill-opacity:1" /></g></g></svg>
