<?xml version="1.0" encoding="UTF-8" standalone="no"?>
<svg
   id="vector"
   width="32"
   height="44"
   viewBox="0 0 61 85"
   version="1.1"
   sodipodi:docname="pin-empty-dark.svg"
   xml:space="preserve"
   inkscape:version="1.3.2 (091e20e, 2023-11-25)"
   xmlns:inkscape="http://www.inkscape.org/namespaces/inkscape"
   xmlns:sodipodi="http://sodipodi.sourceforge.net/DTD/sodipodi-0.dtd"
   xmlns="http://www.w3.org/2000/svg"
   xmlns:svg="http://www.w3.org/2000/svg"><defs
     id="defs1" /><sodipodi:namedview
     id="namedview1"
     pagecolor="#ffffff"
     bordercolor="#000000"
     borderopacity="0.25"
     inkscape:showpageshadow="2"
     inkscape:pageopacity="0.0"
     inkscape:pagecheckerboard="0"
     inkscape:deskcolor="#d1d1d1"
     inkscape:zoom="8"
     inkscape:cx="17"
     inkscape:cy="18.8125"
     inkscape:window-width="1512"
     inkscape:window-height="844"
     inkscape:window-x="0"
     inkscape:window-y="136"
     inkscape:window-maximized="1"
     inkscape:current-layer="vector" /><path
     fill="#000000"
     d="M31.75,0C48.318,0 61,12.488 61,29.057V30c0,21.834 -19.322,49 -29.75,55H31C20.572,79 0,51.834 0,30v-0.943C0,12.488 13.932,0 30.5,0C30.667,0 31.583,0 31.75,0z"
     id="path_0"
     style="fill:#000000;fill-opacity:1" /><path
     fill="#000000"
     d="M31.688,2C47.428,2 59,13.989 59,29.729v0.896C59,51.367 41.119,77 31.212,83h-0.237C21.069,77 2,51.367 2,30.625v-0.896C2,13.989 14.76,2 30.5,2C30.659,2 31.529,2 31.688,2z"
     id="path_1"
     style="fill:#f5d0fe;fill-opacity:1;stroke-width:1.00068182;stroke-dasharray:none" /></svg>
